<svg width="69" height="23" viewBox="0 0 69 23" fill="none" xmlns="http://www.w3.org/2000/svg">
<g id="cat eye">
<g id="Fill 1">
<path fill-rule="evenodd" clip-rule="evenodd" d="M64.2458 7.30804C64.2458 15.2185 58.151 20.9086 50.4728 20.9086C42.7945 20.9086 39.338 15.9788 39.1875 10.8012C39.0972 6.73968 45.2665 4.66239 51.8822 3.26722C59.1699 2.3991 64.3761 2.24409 64.2458 7.30804M29.9894 10.8012C29.8388 15.9788 26.3796 20.9086 18.6952 20.9086C11.0108 20.9086 4.91121 15.2185 4.91121 7.30804C4.78072 2.24409 9.99109 2.3991 17.2847 3.26722C23.9056 4.66239 30.0797 6.73968 29.9894 10.8012M68.1479 4.60037C68.3285 0.218485 58.7486 1.06592 58.7486 1.06592C49.4796 0.910916 38.7361 5.92325 38.7361 5.92325C37.2236 6.76231 34.7539 6.82896 34.5903 6.83251C34.4265 6.82896 31.9548 6.76231 30.4411 5.92325C30.4411 5.92325 19.689 0.910916 10.4127 1.06592C10.4127 1.06592 0.825201 0.218485 1.0059 4.60037C1.0059 4.60037 0.534035 12.2894 8.03338 18.5523C8.03338 18.5523 12.8522 22.7067 18.8156 22.4588C18.8156 22.4588 25.5319 22.6448 29.2364 17.6842C29.2364 17.6842 30.923 15.0245 32.1277 11.7347C32.1277 11.7347 32.3114 10.2058 34.5903 10.1401C36.8673 10.2058 37.0508 11.7347 37.0508 11.7347C38.2546 15.0245 39.9398 17.6842 39.9398 17.6842C43.6414 22.6448 50.3523 22.4588 50.3523 22.4588C56.311 22.7067 61.126 18.5523 61.126 18.5523C68.6194 12.2894 68.1479 4.60037 68.1479 4.60037" fill="#3A4850"/>
<path d="M39.1875 10.8012L38.9376 10.8067L38.9376 10.8084L39.1875 10.8012ZM51.8822 3.26722L51.8526 3.01897L51.8415 3.02029L51.8306 3.0226L51.8822 3.26722ZM4.91121 7.30804L5.16129 7.30804L5.16113 7.3016L4.91121 7.30804ZM17.2847 3.26722L17.3362 3.02259L17.3253 3.02029L17.3142 3.01897L17.2847 3.26722ZM58.7486 1.06592L58.7444 1.31589L58.7575 1.31611L58.7706 1.31495L58.7486 1.06592ZM38.7361 5.92325L38.6304 5.69669L38.6225 5.70039L38.6148 5.70464L38.7361 5.92325ZM34.5903 6.83251L34.5848 7.08269L34.5957 7.08245L34.5903 6.83251ZM30.4411 5.92325L30.5623 5.7046L30.5547 5.70036L30.5467 5.69666L30.4411 5.92325ZM10.4127 1.06592L10.3907 1.31495L10.4038 1.31611L10.4169 1.31589L10.4127 1.06592ZM1.0059 4.60037L1.25543 4.61568L1.25621 4.60288L1.25568 4.59007L1.0059 4.60037ZM8.03338 18.5523L8.19664 18.3629L8.19363 18.3604L8.03338 18.5523ZM18.8156 22.4588L18.8225 22.2089L18.8139 22.2086L18.8052 22.209L18.8156 22.4588ZM29.2364 17.6842L29.4367 17.8337L29.4424 17.8261L29.4475 17.818L29.2364 17.6842ZM32.1277 11.7347L32.3624 11.8207L32.3724 11.7934L32.3759 11.7646L32.1277 11.7347ZM34.5903 10.1401L34.5975 9.89024L34.5903 9.89004L34.5831 9.89024L34.5903 10.1401ZM37.0508 11.7347L36.8026 11.7645L36.806 11.7934L36.816 11.8206L37.0508 11.7347ZM39.9398 17.6842L39.7286 17.818L39.7338 17.826L39.7395 17.8337L39.9398 17.6842ZM50.3523 22.4588L50.3627 22.209L50.3541 22.2086L50.3454 22.2089L50.3523 22.4588ZM61.126 18.5523L60.9657 18.3604L60.9627 18.363L61.126 18.5523ZM63.9958 7.30804C63.9958 15.0736 58.0199 20.6586 50.4728 20.6586V21.1586C58.2821 21.1586 64.4958 15.3635 64.4958 7.30804H63.9958ZM50.4728 20.6586C46.6899 20.6586 43.9743 19.4459 42.1857 17.6215C40.3942 15.7941 39.5111 13.3309 39.4374 10.7939L38.9376 10.8084C39.0143 13.4492 39.9347 16.0396 41.8287 17.9715C43.7255 19.9064 46.5774 21.1586 50.4728 21.1586V20.6586ZM39.4374 10.7956C39.3957 8.91713 40.7957 7.44822 43.1336 6.25708C45.4605 5.07152 48.6293 4.2087 51.9337 3.51183L51.8306 3.0226C48.5193 3.72091 45.2957 4.59431 42.9066 5.81157C40.5284 7.02325 38.889 8.62374 38.9376 10.8067L39.4374 10.7956ZM51.9117 3.51546C55.5647 3.08032 58.6444 2.83228 60.7918 3.3072C61.8591 3.54326 62.6677 3.95237 63.2036 4.5805C63.7368 5.20539 64.0273 6.07915 63.9958 7.30161L64.4957 7.31448C64.5294 6.00496 64.218 4.99911 63.584 4.25596C62.9527 3.51604 62.0286 3.06867 60.8998 2.819C58.6547 2.32247 55.4874 2.58599 51.8526 3.01897L51.9117 3.51546ZM29.7395 10.7939C29.6657 13.3308 28.7819 15.794 26.989 17.6214C25.199 19.4459 22.4811 20.6586 18.6952 20.6586V21.1586C22.5936 21.1586 25.4476 19.9064 27.3459 17.9716C29.2413 16.0397 30.1625 13.4492 30.2393 10.8085L29.7395 10.7939ZM18.6952 20.6586C11.1417 20.6586 5.16121 15.0734 5.16121 7.30804H4.66121C4.66121 15.3637 10.8799 21.1586 18.6952 21.1586V20.6586ZM5.16113 7.3016C5.12963 6.07919 5.42037 5.20547 5.95397 4.58057C6.49035 3.95242 7.29962 3.54328 8.36786 3.30721C10.517 2.83227 13.5993 3.08033 17.2551 3.51546L17.3142 3.01897C13.6765 2.58599 10.5068 2.32248 8.25997 2.81899C7.13023 3.06865 6.20553 3.51599 5.57374 4.25589C4.93916 4.99903 4.62755 6.00492 4.66129 7.31448L5.16113 7.3016ZM17.2331 3.51184C20.5401 4.20871 23.7116 5.07154 26.0403 6.25712C28.3801 7.4483 29.7812 8.91723 29.7394 10.7956L30.2393 10.8067C30.2879 8.62363 28.6471 7.02317 26.2672 5.81154C23.8762 4.5943 20.6501 3.7209 17.3362 3.02259L17.2331 3.51184ZM68.3977 4.61066C68.4475 3.40137 67.814 2.55705 66.8864 1.98656C65.9702 1.42304 64.7494 1.11207 63.551 0.942408C62.3476 0.772042 61.142 0.740929 60.2395 0.751997C59.7877 0.757538 59.4105 0.773674 59.1459 0.788458C59.0136 0.795851 58.9093 0.802909 58.8379 0.808144C58.8021 0.810762 58.7746 0.812924 58.7558 0.814444C58.7465 0.815205 58.7393 0.815805 58.7344 0.816221C58.7319 0.816429 58.73 0.816591 58.7287 0.816705C58.7281 0.816761 58.7276 0.816806 58.7272 0.816838C58.727 0.816854 58.7269 0.816868 58.7268 0.816876C58.7266 0.816888 58.7265 0.816896 58.7486 1.06592C58.7706 1.31495 58.7706 1.31495 58.7706 1.31495C58.7707 1.31495 58.7707 1.31494 58.7708 1.31493C58.771 1.31491 58.7714 1.31488 58.7719 1.31484C58.7729 1.31475 58.7745 1.31461 58.7767 1.31443C58.781 1.31407 58.7875 1.31352 58.7963 1.31281C58.8138 1.31139 58.84 1.30933 58.8744 1.30681C58.9432 1.30177 59.0445 1.2949 59.1738 1.28768C59.4324 1.27323 59.8022 1.2574 60.2457 1.25196C61.1338 1.24107 62.3119 1.27196 63.4809 1.43747C64.6549 1.60368 65.7953 1.90246 66.6245 2.41245C67.4423 2.91547 67.9386 3.60843 67.8981 4.59008L68.3977 4.61066ZM58.7528 0.815958C54.0779 0.73778 49.0443 1.96159 45.1901 3.19842C43.2607 3.81756 41.6222 4.44152 40.4656 4.91084C39.8873 5.14553 39.4292 5.34163 39.1155 5.47922C38.9586 5.54802 38.8377 5.6022 38.7559 5.63928C38.7149 5.65781 38.6838 5.67207 38.6628 5.68175C38.6522 5.68658 38.6443 5.69027 38.6389 5.69278C38.6361 5.69403 38.6341 5.69499 38.6327 5.69564C38.632 5.69597 38.6314 5.69622 38.6311 5.69639C38.6309 5.69648 38.6307 5.69656 38.6306 5.6966C38.6305 5.69666 38.6304 5.69669 38.7361 5.92325C38.8418 6.14981 38.8418 6.14981 38.8419 6.14979C38.8419 6.14975 38.842 6.14971 38.8422 6.14965C38.8424 6.14952 38.8429 6.14932 38.8435 6.14904C38.8447 6.14848 38.8465 6.14762 38.849 6.14646C38.854 6.14415 38.8616 6.14065 38.8717 6.13601C38.8919 6.12672 38.9222 6.11286 38.9622 6.09472C39.0423 6.05844 39.1613 6.00509 39.3162 5.93714C39.6262 5.80122 40.0799 5.60694 40.6536 5.37415C41.8011 4.9085 43.4277 4.28907 45.3429 3.6745C49.1776 2.44391 54.1503 1.23906 58.7444 1.31589L58.7528 0.815958ZM38.6148 5.70464C37.8987 6.10189 36.9393 6.32314 36.1208 6.44387C35.308 6.56379 34.6609 6.58092 34.5848 6.58257L34.5957 7.08245C34.6832 7.08056 35.3528 7.06259 36.1938 6.93852C37.0293 6.81528 38.061 6.58367 38.8574 6.14187L38.6148 5.70464ZM34.5957 6.58257C34.5195 6.58092 33.8719 6.56378 33.0584 6.44387C32.2392 6.32313 31.279 6.10187 30.5623 5.7046L30.3199 6.14191C31.1169 6.58369 32.1494 6.81529 32.9855 6.93853C33.8271 7.06259 34.4973 7.08056 34.5848 7.08245L34.5957 6.58257ZM30.4411 5.92325C30.5467 5.69666 30.5467 5.69663 30.5465 5.69657C30.5464 5.69653 30.5463 5.69645 30.5461 5.69636C30.5457 5.69619 30.5452 5.69593 30.5445 5.69561C30.5431 5.69495 30.541 5.694 30.5383 5.69275C30.5329 5.69024 30.5249 5.68655 30.5144 5.68172C30.4933 5.67204 30.4621 5.65778 30.4212 5.63925C30.3393 5.60217 30.2183 5.54799 30.0613 5.47919C29.7473 5.3416 29.2889 5.1455 28.7101 4.91082C27.5526 4.4415 25.9128 3.81753 23.9819 3.1984C20.1246 1.96157 15.087 0.737781 10.4085 0.815958L10.4169 1.31589C15.0147 1.23906 19.9913 2.44393 23.8292 3.67452C25.7459 4.28909 27.3738 4.90852 28.5222 5.37418C29.0964 5.60697 29.5505 5.80125 29.8607 5.93717C30.0158 6.00512 30.1349 6.05847 30.215 6.09475C30.2551 6.11289 30.2854 6.12675 30.3056 6.13604C30.3157 6.14068 30.3233 6.14418 30.3283 6.14649C30.3308 6.14765 30.3326 6.14851 30.3338 6.14907C30.3344 6.14935 30.3349 6.14955 30.3351 6.14968C30.3353 6.14975 30.3354 6.14979 30.3354 6.14982C30.3355 6.14984 30.3355 6.14984 30.4411 5.92325ZM10.4127 1.06592C10.4347 0.816894 10.4346 0.816886 10.4345 0.816875C10.4344 0.816867 10.4342 0.816852 10.434 0.816836C10.4337 0.816805 10.4332 0.81676 10.4325 0.816703C10.4312 0.81659 10.4293 0.816428 10.4269 0.816219C10.422 0.815803 10.4148 0.815203 10.4054 0.814443C10.3866 0.812923 10.3591 0.810761 10.3233 0.808143C10.2518 0.802908 10.1475 0.79585 10.015 0.788457C9.75019 0.773674 9.37271 0.757538 8.92054 0.751997C8.01737 0.740929 6.8108 0.772042 5.60652 0.942405C4.4072 1.11207 3.1855 1.42302 2.26858 1.98651C1.34034 2.55696 0.706236 3.40127 0.756107 4.61067L1.25568 4.59007C1.21521 3.60853 1.71178 2.91556 2.53037 2.4125C3.36029 1.90248 4.50159 1.60369 5.67655 1.43748C6.84656 1.27196 8.02557 1.24107 8.91441 1.25196C9.35824 1.2574 9.72838 1.27324 9.98715 1.28768C10.1165 1.2949 10.218 1.30177 10.2868 1.30681C10.3212 1.30933 10.3475 1.31139 10.365 1.31281C10.3738 1.31352 10.3803 1.31407 10.3846 1.31443C10.3868 1.31461 10.3884 1.31475 10.3894 1.31484C10.3899 1.31488 10.3902 1.31491 10.3905 1.31493C10.3906 1.31494 10.3906 1.31495 10.3907 1.31495C10.3907 1.31495 10.3907 1.31495 10.4127 1.06592ZM1.0059 4.60037C0.756365 4.58506 0.756355 4.58521 0.756344 4.58539C0.756338 4.5855 0.756325 4.58571 0.756313 4.58591C0.75629 4.58631 0.756259 4.58683 0.756223 4.58746C0.75615 4.58873 0.756053 4.59047 0.755936 4.59267C0.755702 4.59706 0.755387 4.60331 0.755024 4.61137C0.754298 4.62749 0.753378 4.65087 0.752525 4.68123C0.75082 4.74195 0.749378 4.8306 0.750275 4.94495C0.752068 5.17364 0.763215 5.50522 0.800331 5.92182C0.874551 6.75489 1.0527 7.92888 1.46812 9.30023C2.29943 12.0445 4.08044 15.5768 7.87313 18.7442L8.19363 18.3604C4.48697 15.2649 2.75424 11.8212 1.94665 9.15527C1.54261 7.82149 1.37002 6.6818 1.29836 5.87745C1.26253 5.47535 1.25196 5.15731 1.25026 4.94103C1.24941 4.8329 1.25078 4.75024 1.25233 4.69527C1.2531 4.66779 1.25392 4.64723 1.25452 4.63387C1.25482 4.62719 1.25507 4.62231 1.25523 4.61927C1.25531 4.61775 1.25537 4.61669 1.2554 4.61609C1.25542 4.61579 1.25543 4.6156 1.25543 4.61554C1.25544 4.6155 1.25543 4.61554 1.25544 4.61552C1.25543 4.61559 1.25543 4.61568 1.0059 4.60037ZM8.03338 18.5523C7.87014 18.7416 7.87021 18.7417 7.87031 18.7418C7.87037 18.7418 7.87048 18.7419 7.87059 18.742C7.87082 18.7422 7.87112 18.7425 7.87149 18.7428C7.87224 18.7434 7.87328 18.7443 7.87461 18.7455C7.87728 18.7477 7.88111 18.751 7.88609 18.7552C7.89605 18.7636 7.91063 18.7758 7.9297 18.7916C7.96785 18.8231 8.024 18.8688 8.09726 18.9266C8.24377 19.0421 8.45877 19.2061 8.7351 19.4016C9.28755 19.7925 10.0862 20.3105 11.0735 20.8206C13.0453 21.8394 15.7852 22.835 18.826 22.7086L18.8052 22.209C15.8827 22.3305 13.2315 21.3728 11.303 20.3764C10.3401 19.8789 9.56134 19.3738 9.02391 18.9935C8.75529 18.8034 8.54723 18.6447 8.40691 18.534C8.33675 18.4787 8.28355 18.4354 8.2482 18.4061C8.23052 18.3915 8.21731 18.3805 8.20868 18.3732C8.20436 18.3695 8.20119 18.3668 8.19917 18.3651C8.19817 18.3643 8.19745 18.3636 8.19702 18.3633C8.19681 18.3631 8.19667 18.363 8.1966 18.3629C8.19657 18.3629 8.19657 18.3629 8.19656 18.3629C8.19658 18.3629 8.19662 18.3629 8.03338 18.5523ZM18.8156 22.4588C18.8087 22.7087 18.8088 22.7087 18.809 22.7087C18.809 22.7087 18.8092 22.7087 18.8094 22.7087C18.8097 22.7087 18.8101 22.7087 18.8107 22.7087C18.8117 22.7087 18.8132 22.7088 18.8151 22.7088C18.8188 22.7089 18.8242 22.709 18.8311 22.7091C18.8449 22.7093 18.8651 22.7096 18.8912 22.7096C18.9434 22.7098 19.0197 22.7094 19.1175 22.707C19.3131 22.7023 19.5952 22.6899 19.9447 22.6594C20.6433 22.5983 21.6134 22.4645 22.7015 22.1732C24.875 21.5912 27.539 20.3749 29.4367 17.8337L29.0361 17.5346C27.2293 19.954 24.6829 21.125 22.5721 21.6902C21.518 21.9724 20.5775 22.1022 19.9012 22.1613C19.5631 22.1908 19.2916 22.2027 19.1054 22.2071C19.0123 22.2094 18.9406 22.2098 18.8927 22.2096C18.8687 22.2096 18.8507 22.2094 18.8389 22.2092C18.833 22.2091 18.8287 22.209 18.8259 22.2089C18.8246 22.2089 18.8236 22.2089 18.823 22.2089C18.8227 22.2089 18.8226 22.2089 18.8225 22.2089C18.8224 22.2089 18.8224 22.2089 18.8224 22.2089C18.8225 22.2089 18.8225 22.2089 18.8156 22.4588ZM29.2364 17.6842C29.4475 17.818 29.4475 17.818 29.4475 17.818C29.4476 17.8179 29.4476 17.8179 29.4476 17.8178C29.4477 17.8177 29.4478 17.8176 29.4479 17.8174C29.4482 17.817 29.4485 17.8164 29.449 17.8157C29.4499 17.8143 29.4512 17.8122 29.4529 17.8095C29.4563 17.8041 29.4612 17.7962 29.4677 17.7858C29.4807 17.7649 29.4998 17.7342 29.5244 17.694C29.5736 17.6137 29.6449 17.4957 29.7342 17.344C29.9127 17.0406 30.163 16.6021 30.451 16.0605C31.0267 14.9778 31.7549 13.4796 32.3624 11.8207L31.8929 11.6488C31.2957 13.2796 30.5783 14.7561 30.0095 15.8257C29.7253 16.3602 29.4786 16.7923 29.3032 17.0904C29.2156 17.2394 29.1457 17.3549 29.098 17.4329C29.0741 17.4719 29.0558 17.5015 29.0435 17.5212C29.0373 17.5311 29.0327 17.5385 29.0296 17.5433C29.0281 17.5458 29.0269 17.5476 29.0262 17.5487C29.0258 17.5493 29.0256 17.5497 29.0254 17.55C29.0253 17.5501 29.0253 17.5502 29.0252 17.5502C29.0252 17.5503 29.0252 17.5503 29.0252 17.5503C29.0252 17.5503 29.0252 17.5503 29.2364 17.6842ZM32.1277 11.7347C32.3759 11.7646 32.3759 11.7647 32.3759 11.7649C32.3758 11.765 32.3758 11.7651 32.3758 11.7652C32.3758 11.7654 32.3758 11.7656 32.3758 11.7657C32.3757 11.766 32.3757 11.7662 32.3757 11.7663C32.3756 11.7666 32.3757 11.7665 32.3757 11.766C32.3759 11.7651 32.3762 11.7629 32.3768 11.7594C32.378 11.7523 32.3802 11.7403 32.3839 11.724C32.3913 11.6913 32.4044 11.6418 32.4268 11.5807C32.4715 11.4586 32.5522 11.2924 32.6951 11.1237C32.9745 10.7939 33.52 10.4211 34.5975 10.39L34.5831 9.89024C33.3817 9.92487 32.6958 10.3494 32.3137 10.8005C32.1258 11.0221 32.0182 11.2423 31.9572 11.4089C31.9267 11.4923 31.9077 11.5626 31.8962 11.6138C31.8904 11.6394 31.8864 11.6603 31.8838 11.6757C31.8825 11.6835 31.8815 11.6898 31.8808 11.6947C31.8805 11.6971 31.8802 11.6992 31.88 11.7009C31.8799 11.7018 31.8798 11.7025 31.8797 11.7032C31.8796 11.7035 31.8796 11.7038 31.8796 11.7041C31.8795 11.7043 31.8795 11.7045 31.8795 11.7045C31.8795 11.7047 31.8795 11.7049 32.1277 11.7347ZM34.583 10.39C35.6595 10.4211 36.2045 10.7938 36.4836 11.1236C36.6265 11.2924 36.7071 11.4585 36.7517 11.5807C36.7741 11.6417 36.7872 11.6913 36.7946 11.724C36.7983 11.7403 36.8005 11.7523 36.8017 11.7593C36.8023 11.7628 36.8026 11.7651 36.8028 11.766C36.8028 11.7664 36.8028 11.7665 36.8028 11.7663C36.8028 11.7662 36.8028 11.766 36.8027 11.7657C36.8027 11.7655 36.8027 11.7654 36.8027 11.7652C36.8026 11.7651 36.8026 11.7649 36.8026 11.7649C36.8026 11.7647 36.8026 11.7645 37.0508 11.7347C37.299 11.7049 37.299 11.7048 37.299 11.7046C37.299 11.7045 37.2989 11.7043 37.2989 11.7042C37.2989 11.7039 37.2988 11.7036 37.2988 11.7032C37.2987 11.7026 37.2986 11.7018 37.2985 11.701C37.2983 11.6993 37.298 11.6972 37.2977 11.6947C37.2969 11.6898 37.296 11.6835 37.2947 11.6758C37.2921 11.6604 37.2881 11.6395 37.2823 11.6139C37.2708 11.5627 37.2518 11.4923 37.2213 11.409C37.1604 11.2424 37.0529 11.0222 36.8652 10.8005C36.4834 10.3494 35.798 9.92488 34.5975 9.89024L34.583 10.39ZM36.816 11.8206C37.423 13.4796 38.1507 14.9778 38.7259 16.0604C39.0137 16.6021 39.2638 17.0405 39.4422 17.3439C39.5314 17.4956 39.6027 17.6136 39.6518 17.6939C39.6764 17.7341 39.6954 17.7648 39.7084 17.7857C39.7149 17.7961 39.7199 17.804 39.7233 17.8094C39.725 17.8121 39.7263 17.8142 39.7272 17.8156C39.7276 17.8163 39.728 17.8169 39.7282 17.8173C39.7283 17.8175 39.7284 17.8176 39.7285 17.8177C39.7285 17.8178 39.7286 17.8179 39.7286 17.8179C39.7286 17.8179 39.7286 17.818 39.9398 17.6842C40.151 17.5503 40.151 17.5504 40.151 17.5504C40.151 17.5503 40.151 17.5503 40.151 17.5503C40.151 17.5503 40.1509 17.5502 40.1508 17.5501C40.1507 17.5498 40.1504 17.5494 40.15 17.5488C40.1493 17.5476 40.1482 17.5458 40.1466 17.5434C40.1436 17.5385 40.1389 17.5311 40.1328 17.5213C40.1205 17.5016 40.1022 17.4719 40.0783 17.433C40.0306 17.355 39.9608 17.2395 39.8732 17.0905C39.698 16.7924 39.4515 16.3603 39.1675 15.8258C38.5992 14.7562 37.8823 13.2797 37.2856 11.6488L36.816 11.8206ZM39.7395 17.8337C41.6357 20.3749 44.2976 21.5912 46.4695 22.1732C47.5567 22.4645 48.526 22.5983 49.2241 22.6594C49.5734 22.6899 49.8553 22.7023 50.0507 22.707C50.1484 22.7094 50.2246 22.7098 50.2768 22.7096C50.3029 22.7096 50.323 22.7093 50.3369 22.7091C50.3438 22.709 50.3491 22.7089 50.3529 22.7088C50.3548 22.7088 50.3562 22.7087 50.3573 22.7087C50.3578 22.7087 50.3583 22.7087 50.3586 22.7087C50.3587 22.7087 50.3589 22.7087 50.359 22.7087C50.3591 22.7087 50.3593 22.7087 50.3523 22.4588C50.3454 22.2089 50.3455 22.2089 50.3455 22.2089C50.3455 22.2089 50.3455 22.2089 50.3455 22.2089C50.3454 22.2089 50.3452 22.2089 50.3449 22.2089C50.3444 22.2089 50.3434 22.2089 50.342 22.2089C50.3393 22.209 50.3349 22.2091 50.3291 22.2092C50.3173 22.2094 50.2993 22.2096 50.2753 22.2096C50.2274 22.2098 50.1558 22.2094 50.0628 22.2071C49.8767 22.2027 49.6054 22.1908 49.2677 22.1613C48.5918 22.1022 47.6521 21.9724 46.5989 21.6902C44.4899 21.1251 41.9455 19.9541 40.1402 17.5346L39.7395 17.8337ZM50.3419 22.7086C53.3805 22.835 56.1182 21.8394 58.0885 20.8206C59.075 20.3105 59.873 19.7925 60.425 19.4016C60.7012 19.206 60.916 19.0421 61.0624 18.9265C61.1356 18.8687 61.1917 18.823 61.2298 18.7915C61.2489 18.7758 61.2634 18.7635 61.2734 18.7551C61.2784 18.7509 61.2822 18.7477 61.2849 18.7454C61.2862 18.7443 61.2872 18.7434 61.288 18.7427C61.2883 18.7424 61.2886 18.7421 61.2889 18.7419C61.289 18.7419 61.2891 18.7418 61.2892 18.7417C61.2893 18.7416 61.2893 18.7416 61.126 18.5523C60.9627 18.363 60.9627 18.363 60.9628 18.3629C60.9627 18.3629 60.9628 18.3629 60.9627 18.363C60.9627 18.363 60.9625 18.3632 60.9623 18.3633C60.9619 18.3637 60.9612 18.3643 60.9602 18.3652C60.9581 18.3669 60.955 18.3696 60.9507 18.3732C60.942 18.3805 60.9288 18.3916 60.9112 18.4062C60.8758 18.4354 60.8227 18.4787 60.7526 18.5341C60.6124 18.6447 60.4045 18.8034 60.1361 18.9935C59.5991 19.3738 58.8209 19.8789 57.8588 20.3764C55.9319 21.3729 53.2828 22.3305 50.3627 22.209L50.3419 22.7086ZM61.2863 18.7441C65.076 15.5767 66.8556 12.0444 67.6863 9.30017C68.1014 7.92884 68.2794 6.75486 68.3535 5.92181C68.3906 5.50521 68.4018 5.17363 68.4035 4.94495C68.4044 4.8306 68.403 4.74195 68.4013 4.68124C68.4004 4.65088 68.3995 4.6275 68.3988 4.61138C68.3984 4.60332 68.3981 4.59707 68.3979 4.59268C68.3978 4.59048 68.3977 4.58874 68.3976 4.58747C68.3976 4.58684 68.3975 4.58632 68.3975 4.58592C68.3975 4.58572 68.3975 4.58551 68.3975 4.58541C68.3975 4.58522 68.3975 4.58507 68.1479 4.60037C67.8984 4.61567 67.8984 4.61558 67.8984 4.61551C67.8984 4.61553 67.8984 4.61549 67.8984 4.61553C67.8984 4.61559 67.8984 4.61578 67.8984 4.61608C67.8985 4.61668 67.8985 4.61774 67.8986 4.61926C67.8988 4.6223 67.899 4.62718 67.8993 4.63386C67.8999 4.64722 67.9007 4.66778 67.9015 4.69527C67.903 4.75024 67.9044 4.8329 67.9036 4.94103C67.9019 5.15731 67.8913 5.47536 67.8555 5.87747C67.7839 6.68182 67.6114 7.82153 67.2077 9.15532C66.4008 11.8213 64.6694 15.265 60.9657 18.3604L61.2863 18.7441Z" fill="#3A4850"/>
</g>
<g id="Group">
<path id="Fill 8" d="M16.3348 9.77573C16.2685 9.7083 16.1607 9.7083 16.0944 9.77573L11.5052 14.4441C11.4389 14.5115 11.4389 14.6212 11.5052 14.6886C11.5385 14.7225 11.582 14.7394 11.6252 14.7394C11.6687 14.7394 11.7122 14.7225 11.7455 14.6886L16.3348 10.0202C16.4011 9.95279 16.4011 9.84316 16.3348 9.77573" stroke="#B0BDC5" stroke-width="0.55"/>
<path id="Fill 10" d="M22.8934 7.35502L13.8848 16.5189C13.8185 16.5863 13.8185 16.6959 13.8848 16.7633C13.9181 16.7972 13.9616 16.8142 14.0051 16.8142C14.0483 16.8142 14.0918 16.7972 14.1251 16.7633L23.1337 7.5995C23.2 7.53207 23.2 7.42245 23.1337 7.35502C23.0674 7.28759 22.9597 7.28759 22.8934 7.35502" stroke="#B0BDC5" stroke-width="0.55"/>
<path id="Fill 12" d="M49.3095 9.77573C49.2432 9.7083 49.1355 9.7083 49.0692 9.77573L44.4799 14.4441C44.4136 14.5115 44.4136 14.6212 44.4799 14.6886C44.5132 14.7225 44.5567 14.7394 44.5999 14.7394C44.6434 14.7394 44.6869 14.7225 44.7202 14.6886L49.3095 10.0202C49.3758 9.95279 49.3758 9.84316 49.3095 9.77573" stroke="#B0BDC5" stroke-width="0.55"/>
<path id="Fill 14" d="M55.8681 7.35502L46.8595 16.5189C46.7932 16.5863 46.7932 16.6959 46.8595 16.7633C46.8928 16.7972 46.9364 16.8142 46.9799 16.8142C47.023 16.8142 47.0666 16.7972 47.0999 16.7633L56.1084 7.5995C56.1747 7.53207 56.1747 7.42245 56.1084 7.35502C56.0421 7.28759 55.9344 7.28759 55.8681 7.35502" stroke="#B0BDC5" stroke-width="0.55"/>
</g>
</g>
</svg>
